# xmcd
#
# Track frame offsets: 
#        150
#        20981
#        47784
#        68416
#        85311
#        111757
#        133728
#        150584
#        179196
#        194702
#        218032
#        234915
#        264582
#        282343
#        301675
#        325305
#
# Disc length: 4531 seconds
#
# Revision: 5
# Processed by: cddbd v1.5.2PL0 Copyright (c) Steve Scherf et al.
# Submitted via: ExactAudioCopyFreeDBPlugin 1.0
#
DISCID=eb11b110
DTITLE=Destruction - Thrash Anthems (Limited Edition)
DYEAR=2007
DGENRE=Thrash Metal
TTITLE0=Bestial Invasion
TTITLE1=Profanity
TTITLE2=Release From Agony
TTITLE3=Mad Butcher
TTITLE4=Reject Emotions
TTITLE5=Death Trap
TTITLE6=Cracked Brain
TTITLE7=Life Without Sense
TTITLE8=Total Disaster
TTITLE9=Depostition (Your Heads Will Roll)
TTITLE10=Invincible Force
TTITLE11=Sign Of Fear
TTITLE12=Tormentor
TTITLE13=Unconscious Ruins
TTITLE14=Curse The Gods
TTITLE15=Eternal Ban (Re-Recorded Version) (Bonus Track)
EXTD=
EXTT0=
EXTT1=
EXTT2=
EXTT3=
EXTT4=
EXTT5=
EXTT6=
EXTT7=
EXTT8=
EXTT9=
EXTT10=
EXTT11=
EXTT12=
EXTT13=
EXTT14=
EXTT15=
PLAYORDER=
